<?xml version="1.0" encoding="utf-8"?>
<svg version="1.1" width="640" height="480" viewBox="0 0 640 480" xmlns="http://www.w3.org/2000/svg">
  <desc>Created with Fabric.js 3.6.3</desc>
  <g>
    <g transform="matrix(30.299999, 0, 0, 30.299999, 283.230011, 231.770004)" id="Layer_1">
      <linearGradient id="gradient-0" gradientUnits="userSpaceOnUse" gradientTransform="matrix(0, -0.08, 0.1, 0, 5.729999, 6.93)" x1="94.383" y1="-102.821" x2="94.383" y2="-18.121">
        <stop offset="0.526" style="stop-color:rgb(255,81,47);stop-opacity: 1"/>
        <stop offset="0.755" style="stop-color:rgb(252,86,127);stop-opacity: 1"/>
      </linearGradient>
      <path style="stroke: none; stroke-width: 1; stroke-dasharray: none; stroke-linecap: butt; stroke-dashoffset: 0; stroke-linejoin: miter; stroke-miterlimit: 4; fill-rule: nonzero; opacity: 1;" d="M -2.905 -3.254 L 3.001 -3.254 C 3.191 -3.255 3.373 -3.18 3.506 -3.046 C 3.639 -2.907 3.729 -2.733 3.763 -2.545 L 4.776 2.451 C 4.784 2.489 4.788 2.528 4.788 2.567 C 4.785 2.739 4.713 2.903 4.586 3.021 C 4.471 3.133 4.325 3.209 4.166 3.241 C 4.115 3.251 4.062 3.256 4.01 3.256 L -1.816 3.256 C -1.837 3.256 -1.857 3.256 -1.876 3.256 L -4.334 3.256 C -4.675 3.219 -4.809 2.972 -4.787 2.645 L -3.834 -2.12 C -3.778 -2.333 -3.725 -2.556 -3.659 -2.735 C -3.648 -2.769 -3.634 -2.801 -3.618 -2.833 L -3.614 -2.84 C -3.58 -2.905 -3.535 -2.965 -3.482 -3.016 C -3.369 -3.126 -3.227 -3.202 -3.072 -3.236 C -3.017 -3.248 -2.961 -3.254 -2.905 -3.254 Z" stroke-linecap="round"/>
      <path style="stroke: none; stroke-width: 1; stroke-dasharray: none; stroke-linecap: butt; stroke-dashoffset: 0; stroke-linejoin: miter; stroke-miterlimit: 4; fill-rule: nonzero; opacity: 1; fill: rgb(255, 255, 255);" d="M 3.001 -2.753 L -2.905 -2.753 C -2.925 -2.753 -2.945 -2.751 -2.965 -2.747 C -3.023 -2.734 -3.077 -2.705 -3.12 -2.664 C -3.149 -2.639 -3.166 -2.605 -3.17 -2.568 C -3.047 -1.287 -2.378 1.073 -2.078 2.445 C -2.062 2.538 -2.019 2.624 -1.956 2.693 C -1.918 2.732 -1.866 2.754 -1.812 2.753 L 4.021 2.753 C 4.039 2.753 4.057 2.751 4.075 2.748 C 4.136 2.736 4.192 2.706 4.237 2.663 C 4.266 2.638 4.285 2.602 4.288 2.564 L 4.288 2.544 L 3.275 -2.451 C 3.26 -2.542 3.219 -2.627 3.157 -2.696 C 3.118 -2.735 3.065 -2.757 3.01 -2.757 L 3.001 -2.753 Z" stroke-linecap="round"/>
      <path style="stroke: none; stroke-width: 1; stroke-dasharray: none; stroke-linecap: butt; stroke-dashoffset: 0; stroke-linejoin: miter; stroke-miterlimit: 4; fill: url(#gradient-0); fill-rule: nonzero; opacity: 1;" d="M -1.006 0.358 C -1.395 -0.054 -0.798 -0.668 -0.367 -0.279 C -0.215 -0.143 0.006 0.057 0.16 0.193 L 1.287 -1.186 C 1.7 -1.605 2.35 -0.989 1.943 -0.566 L 0.513 1.127 C 0.344 1.303 0.064 1.315 -0.121 1.155 C -0.373 0.918 -0.745 0.578 -1.007 0.359 L -1.006 0.358 Z" stroke-linecap="round"/>
    </g>
  </g>
</svg>